# xmcd CD database file
#
# Track frame offsets:
#	150
#	12841
#	27202
#	40429
#	56598
#	74927
#	89245
#	99979
#	111548
#	126702
#	144031
#	162867
#	179596
#	192942
#	209085
#	228624
#	243857
#	258118
#	270850
#	287003
#
# Disc length: 4112 seconds
#
# Revision: 0
# Processed by: cddbd v1.5.1PL2 Copyright (c) Steve Scherf et al.
# Submitted via: CDex 1.51
#
DISCID=31100e14
DTITLE=Männer die unter die Haut gehen - Meine Zeit mit Dir CD2
DYEAR=2006
DGENRE=Country
TTITLE0=Sag Dankeschön Mit Roten Rosen - Heintje Simons
TTITLE1=Wenn (If) - Curd Jürgens
TTITLE2=Mit Dem Wind Mus Ich Weiterzieh'n - Friedrich Schütter
TTITLE3=Der Clown (Album Version) - Heinz Rühmann
TTITLE4=Desiderata - Ulrich Eichblatt and Tina Long
TTITLE5=Ich Möchte Keine Millionen - Bert Beel
TTITLE6=Sag Warum - Camillo Felgen
TTITLE7=Es Ist Alles Nur Geliehen - Heinz Schenk
TTITLE8=Werd Ich Noch Jung Sein Wenn Ich Älter Bin - Reiner Schöne
TTITLE9=Und Dann Frag' Ich Meinen Drink - Harald Leipnitz
TTITLE10=Für Immer (The Air That I Breathe) - EICHBLATT.
TTITLE11=Ein Baum, Ein Haus, Ein Kind - Gustav Knuth
TTITLE12=Bella Musica - Peter Alexander
TTITLE13=Komm' Zu Mir Durch's Telefon - Arnold Marquis
TTITLE14=Die Zeit Verfliegt - Bodo Henkel
TTITLE15=Wintergedanken - Horst Frank
TTITLE16=Das War Sein Milljöh - Bully Buhlan
TTITLE17=Marina - Rocco Granata
TTITLE18=Das Geht Vorbei - Michael Hansen
TTITLE19=Ruf Teddybär Eins-Vier - Jonny Hill
EXTD=YEAR: 2006
EXTT0=
EXTT1=
EXTT2=
EXTT3=
EXTT4=
EXTT5=
EXTT6=
EXTT7=
EXTT8=
EXTT9=
EXTT10=
EXTT11=
EXTT12=
EXTT13=
EXTT14=
EXTT15=
EXTT16=
EXTT17=
EXTT18=
EXTT19=
PLAYORDER=
